M48
;Layer_Color=9474304
;FILE_FORMAT=2:5
INCH,LZ
;TYPE=PLATED
T1F00S00C0.00787
T2F00S00C0.02953
T3F00S00C0.09055
%
T01
X0474822Y02735
X0478562Y02795
X0479Y02915
X0482
X0485
X0476
X04705
X04885Y0271
X05025Y0278024
X04675Y02915
X04645
X0461Y027
X0447
X04375Y0271149
X044998Y0279269
T02
X053Y0289
T03
X05255Y0255303
X0526Y03055
X0449
X042Y02845
M30
