G04*
G04 #@! TF.GenerationSoftware,Altium Limited,Altium Designer,18.1.6 (161)*
G04*
G04 Layer_Color=16711935*
%FSLAX25Y25*%
%MOIN*%
G70*
G01*
G75*
%ADD17R,0.11036X0.06115*%
%ADD21C,0.16548*%
%ADD22C,0.05524*%
G04:AMPARAMS|DCode=43|XSize=110.36mil|YSize=61.15mil|CornerRadius=0mil|HoleSize=0mil|Usage=FLASHONLY|Rotation=315.000|XOffset=0mil|YOffset=0mil|HoleType=Round|Shape=Rectangle|*
%AMROTATEDRECTD43*
4,1,4,-0.06064,0.01740,-0.01740,0.06064,0.06064,-0.01740,0.01740,-0.06064,-0.06064,0.01740,0.0*
%
%ADD43ROTATEDRECTD43*%

%ADD44R,0.03950X0.03950*%
%ADD45R,0.02769X0.02572*%
%ADD46C,0.24422*%
%ADD47R,0.02572X0.02769*%
%ADD48R,0.02769X0.02375*%
%ADD49R,0.03950X0.03950*%
%ADD50R,0.02375X0.02769*%
%ADD51R,0.02965X0.03950*%
%ADD52R,0.03950X0.02965*%
%ADD53R,0.02965X0.03753*%
G54D17*
X468500Y296177D02*
D03*
Y305823D02*
D03*
X526500Y267677D02*
D03*
Y277323D02*
D03*
X481000Y296177D02*
D03*
Y305823D02*
D03*
X496500Y255299D02*
D03*
Y264945D02*
D03*
X510000Y255299D02*
D03*
Y264945D02*
D03*
G54D21*
X420000Y284500D02*
D03*
X449000Y305500D02*
D03*
X526000D02*
D03*
X525500Y255303D02*
D03*
G54D22*
X530000Y289000D02*
D03*
G54D43*
X434410Y302410D02*
D03*
X427590Y295590D02*
D03*
G54D44*
X515566Y247500D02*
D03*
X509660D02*
D03*
G54D45*
X506636D02*
D03*
X503684D02*
D03*
X434024Y252000D02*
D03*
X436976D02*
D03*
X499476Y284000D02*
D03*
X496524D02*
D03*
X443000Y283500D02*
D03*
X440047D02*
D03*
X471322Y283801D02*
D03*
X468369D02*
D03*
G54D46*
X412000Y255000D02*
D03*
G54D47*
X467000Y269929D02*
D03*
Y272882D02*
D03*
X438000Y265500D02*
D03*
Y262547D02*
D03*
X466322Y279476D02*
D03*
Y276524D02*
D03*
X438000Y279476D02*
D03*
Y276524D02*
D03*
X494500Y279476D02*
D03*
Y276524D02*
D03*
G54D48*
X438000Y255925D02*
D03*
Y259075D02*
D03*
X452500Y289425D02*
D03*
Y292575D02*
D03*
G54D49*
X457000Y292953D02*
D03*
Y287047D02*
D03*
X467322Y252606D02*
D03*
Y258511D02*
D03*
G54D50*
X446831Y265500D02*
D03*
X449980D02*
D03*
G54D51*
Y252000D02*
D03*
X446240D02*
D03*
X442500D02*
D03*
Y262039D02*
D03*
X446240D02*
D03*
X449980D02*
D03*
G54D52*
X472302Y259039D02*
D03*
Y251559D02*
D03*
X482341D02*
D03*
Y255299D02*
D03*
Y259039D02*
D03*
G54D53*
X447000Y282520D02*
D03*
X443260Y272480D02*
D03*
X450740D02*
D03*
X503000Y283067D02*
D03*
X499260Y273028D02*
D03*
X506740D02*
D03*
X474822Y282821D02*
D03*
X471081Y272781D02*
D03*
X478562D02*
D03*
M02*
