G04*
G04 #@! TF.GenerationSoftware,Altium Limited,Altium Designer,18.1.6 (161)*
G04*
G04 Layer_Color=16711935*
%FSLAX25Y25*%
%MOIN*%
G70*
G01*
G75*
%ADD56C,0.00197*%
G54D56*
X399000Y254000D02*
X399046Y252948D01*
X399183Y251904D01*
X399411Y250876D01*
X399728Y249871D01*
X400131Y248899D01*
X400617Y247965D01*
X401183Y247076D01*
X401824Y246241D01*
X402535Y245464D01*
X402500Y263500D02*
X401796Y262731D01*
X401161Y261904D01*
X400601Y261025D01*
X400120Y260100D01*
X399721Y259137D01*
X399407Y258143D01*
X399182Y257125D01*
X399045Y256092D01*
X399000Y255050D01*
X412121Y298621D02*
X411497Y297909D01*
X410970Y297121D01*
X410551Y296272D01*
X410247Y295374D01*
X410062Y294445D01*
X410000Y293500D01*
X430828Y314500D02*
X429760Y314416D01*
X428718Y314166D01*
X427728Y313756D01*
X426815Y313196D01*
X426000Y312500D01*
X532121Y312379D02*
X531409Y313003D01*
X530621Y313530D01*
X529772Y313949D01*
X528874Y314253D01*
X527945Y314438D01*
X527000Y314500D01*
X538500Y302465D02*
X538446Y303420D01*
X538286Y304364D01*
X538021Y305284D01*
X537655Y306168D01*
X537192Y307006D01*
X536638Y307786D01*
X536000Y308500D01*
X536250Y243250D02*
X536912Y244005D01*
X537471Y244841D01*
X537915Y245742D01*
X538238Y246694D01*
X538434Y247679D01*
X538500Y248682D01*
X530818Y241000D02*
X531821Y241066D01*
X532806Y241262D01*
X533758Y241585D01*
X534659Y242029D01*
X535495Y242587D01*
X536250Y243250D01*
X404000Y244000D02*
X404745Y243325D01*
X405552Y242726D01*
X406414Y242209D01*
X407323Y241780D01*
X408269Y241441D01*
X409244Y241197D01*
X410239Y241049D01*
X411243Y241000D01*
X408500Y269500D02*
X409137Y270276D01*
X409610Y271162D01*
X409902Y272122D01*
X410000Y273121D01*
X402535Y245464D02*
X404000Y244000D01*
X402500Y263500D02*
X408500Y269500D01*
X399000Y254000D02*
Y255050D01*
X410000Y276500D02*
Y293500D01*
X412121Y298621D02*
X426000Y312500D01*
X430828Y314500D02*
X527000D01*
X532121Y312379D02*
X536000Y308500D01*
X538500Y248682D02*
Y302465D01*
X411243Y241000D02*
X530818D01*
X410000Y273121D02*
Y283500D01*
M02*
