G04*
G04 #@! TF.GenerationSoftware,Altium Limited,Altium Designer,18.1.6 (161)*
G04*
G04 Layer_Color=128*
%FSLAX25Y25*%
%MOIN*%
G70*
G01*
G75*
%ADD59C,0.00200*%
G54D59*
X415472Y284500D02*
X424528D01*
X420000Y279972D02*
Y289028D01*
X444472Y305500D02*
X453528D01*
X449000Y300972D02*
Y310028D01*
X521472Y305500D02*
X530528D01*
X526000Y300972D02*
Y310028D01*
X520972Y255303D02*
X530028D01*
X525500Y250776D02*
Y259831D01*
X528524Y289000D02*
X531476D01*
X530000Y287524D02*
Y290476D01*
X484606Y291500D02*
X485394D01*
X485000Y291106D02*
Y291894D01*
X481606Y291500D02*
X482394D01*
X482000Y291106D02*
Y291894D01*
X478606Y291500D02*
X479394D01*
X479000Y291106D02*
Y291894D01*
X475606Y291500D02*
X476394D01*
X476000Y291106D02*
Y291894D01*
X470106Y291500D02*
X470894D01*
X470500Y291106D02*
Y291894D01*
X467106Y291500D02*
X467894D01*
X467500Y291106D02*
Y291894D01*
X464106Y291500D02*
X464894D01*
X464500Y291106D02*
Y291894D01*
X437106Y271149D02*
X437894D01*
X437500Y270756D02*
Y271543D01*
X460606Y270000D02*
X461394D01*
X461000Y269606D02*
Y270394D01*
X446606Y270000D02*
X447394D01*
X447000Y269606D02*
Y270394D01*
X474428Y273500D02*
X475215D01*
X474822Y273106D02*
Y273894D01*
X488106Y271000D02*
X488894D01*
X488500Y270606D02*
Y271394D01*
X502106Y278024D02*
X502894D01*
X502500Y277630D02*
Y278417D01*
X478168Y279500D02*
X478956D01*
X478562Y279106D02*
Y279894D01*
X449587Y279269D02*
X450374D01*
X449980Y278876D02*
Y279663D01*
M02*
