G04*
G04 #@! TF.GenerationSoftware,Altium Limited,Altium Designer,18.1.6 (161)*
G04*
G04 Layer_Color=2752767*
%FSLAX25Y25*%
%MOIN*%
G70*
G01*
G75*
%ADD59C,0.00200*%
%ADD60C,0.00267*%
G54D59*
X419200Y283700D02*
Y285300D01*
X420800D01*
Y283700D01*
X419200D01*
X448200Y304700D02*
Y306300D01*
X449800D01*
Y304700D01*
X448200D01*
X525200D02*
Y306300D01*
X526800D01*
Y304700D01*
X525200D01*
X524700Y254503D02*
Y256103D01*
X526300D01*
Y254503D01*
X524700D01*
X485000Y290700D02*
X484200Y292300D01*
X485800D01*
X485000Y290700D01*
X482000D02*
X481200Y292300D01*
X482800D01*
X482000Y290700D01*
X479000D02*
X478200Y292300D01*
X479800D01*
X479000Y290700D01*
X476000D02*
X475200Y292300D01*
X476800D01*
X476000Y290700D01*
X470500D02*
X469700Y292300D01*
X471300D01*
X470500Y290700D01*
X467500D02*
X466700Y292300D01*
X468300D01*
X467500Y290700D01*
X464500D02*
X463700Y292300D01*
X465300D01*
X464500Y290700D01*
X437500Y270349D02*
X436700Y271949D01*
X438300D01*
X437500Y270349D01*
X461000Y269200D02*
X460200Y270800D01*
X461800D01*
X461000Y269200D01*
X447000D02*
X446200Y270800D01*
X447800D01*
X447000Y269200D01*
X474822Y272700D02*
X474022Y274300D01*
X475622D01*
X474822Y272700D01*
X488500Y270200D02*
X487700Y271800D01*
X489300D01*
X488500Y270200D01*
X502500Y277224D02*
X501700Y278824D01*
X503300D01*
X502500Y277224D01*
X478562Y278700D02*
X477762Y280300D01*
X479362D01*
X478562Y278700D01*
X449980Y278469D02*
X449180Y280069D01*
X450780D01*
X449980Y278469D01*
G54D60*
X530800Y289000D02*
X530247Y289761D01*
X529353Y289470D01*
Y288530D01*
X530247Y288239D01*
X530800Y289000D01*
M02*
