G04*
G04 #@! TF.GenerationSoftware,Altium Limited,Altium Designer,18.1.6 (161)*
G04*
G04 Layer_Color=16711935*
%FSLAX25Y25*%
%MOIN*%
G70*
G01*
G75*
%ADD55C,0.00394*%
G54D55*
X422370Y297886D02*
X432114Y307630D01*
X429886Y290370D02*
X439630Y300114D01*
X432114Y307630D02*
X439630Y300114D01*
X422370Y297886D02*
X429886Y290370D01*
X473815Y294110D02*
Y307890D01*
X463185Y294110D02*
Y307890D01*
Y294110D02*
X473815D01*
X463185Y307890D02*
X473815D01*
X531815Y265610D02*
Y279390D01*
X521185Y265610D02*
Y279390D01*
Y265610D02*
X531815D01*
X521185Y279390D02*
X531815D01*
X486315Y294110D02*
Y307890D01*
X475685Y294110D02*
Y307890D01*
Y294110D02*
X486315D01*
X475685Y307890D02*
X486315D01*
X521185Y265110D02*
Y278890D01*
X531815Y265110D02*
Y278890D01*
X521185Y265110D02*
X531815D01*
X521185Y278890D02*
X531815D01*
X507227Y246417D02*
Y248583D01*
X503093Y246417D02*
Y248583D01*
X507227D01*
X503093Y246417D02*
X507227D01*
X501815Y253232D02*
Y267011D01*
X491185Y253232D02*
Y267011D01*
Y253232D02*
X501815D01*
X491185Y267011D02*
X501815D01*
X515315Y253232D02*
Y267011D01*
X504685Y253232D02*
Y267011D01*
Y253232D02*
X515315D01*
X504685Y267011D02*
X515315D01*
X428610Y287685D02*
X442390D01*
X428610Y298315D02*
X442390D01*
Y287685D02*
Y298315D01*
X428610Y287685D02*
Y298315D01*
X494095Y298815D02*
X507875D01*
X494095Y288185D02*
X507875D01*
X494095D02*
Y298815D01*
X507875Y288185D02*
Y298815D01*
X488159Y311815D02*
X501938D01*
X488159Y301185D02*
X501938D01*
X488159D02*
Y311815D01*
X501938Y301185D02*
Y311815D01*
X465917Y269338D02*
X468083D01*
X465917Y273472D02*
X468083D01*
Y269338D02*
Y273472D01*
X465917Y269338D02*
Y273472D01*
X436917Y255433D02*
Y259567D01*
X439083Y255433D02*
Y259567D01*
X436917D02*
X439083D01*
X436917Y255433D02*
X439083D01*
X451417Y293067D02*
X453583D01*
X451417Y288933D02*
X453583D01*
X451417D02*
Y293067D01*
X453583Y288933D02*
Y293067D01*
X455228Y286653D02*
Y293347D01*
X458772Y286653D02*
Y293347D01*
X455228D02*
X458772D01*
X455228Y286653D02*
X458772D01*
X433433Y250917D02*
Y253083D01*
X437567Y250917D02*
Y253083D01*
X433433Y250917D02*
X437567D01*
X433433Y253083D02*
X437567D01*
X436917Y266090D02*
X439083D01*
X436917Y261957D02*
X439083D01*
X436917D02*
Y266090D01*
X439083Y261957D02*
Y266090D01*
X446339Y266583D02*
X450472D01*
X446339Y264417D02*
X450472D01*
Y266583D01*
X446339Y264417D02*
Y266583D01*
X465550Y252212D02*
X469093D01*
X465550Y258905D02*
X469093D01*
Y252212D02*
Y258905D01*
X465550Y252212D02*
Y258905D01*
X440236Y253575D02*
X452244D01*
X440236Y260465D02*
X452244D01*
Y253575D02*
Y260465D01*
X440236Y253575D02*
Y260465D01*
X473877Y249295D02*
X480767D01*
X473877Y261303D02*
X480767D01*
X473877Y249295D02*
Y261303D01*
X480767Y249295D02*
Y261303D01*
X465239Y275933D02*
Y280067D01*
X467404Y275933D02*
Y280067D01*
X465239D02*
X467404D01*
X465239Y275933D02*
X467404D01*
X436917D02*
Y280067D01*
X439083Y275933D02*
Y280067D01*
X436917D02*
X439083D01*
X436917Y275933D02*
X439083D01*
X493417D02*
Y280067D01*
X495583Y275933D02*
Y280067D01*
X493417D02*
X495583D01*
X493417Y275933D02*
X495583D01*
X440898Y273957D02*
Y281043D01*
X453102Y273957D02*
Y281043D01*
X440898D02*
X453102D01*
X440898Y273957D02*
X453102D01*
X496898Y274504D02*
Y281591D01*
X509102Y274504D02*
Y281591D01*
X496898D02*
X509102D01*
X496898Y274504D02*
X509102D01*
X495933Y285083D02*
X500067D01*
X495933Y282917D02*
X500067D01*
Y285083D01*
X495933Y282917D02*
Y285083D01*
X439457Y284583D02*
X443590D01*
X439457Y282417D02*
X443590D01*
Y284583D01*
X439457Y282417D02*
Y284583D01*
X467778Y284884D02*
X471912D01*
X467778Y282718D02*
X471912D01*
Y284884D01*
X467778Y282718D02*
Y284884D01*
X468719Y274258D02*
Y281345D01*
X480924Y274258D02*
Y281345D01*
X468719D02*
X480924D01*
X468719Y274258D02*
X480924D01*
X489311Y273807D02*
X515689D01*
X489311Y249398D02*
X515689D01*
X515689Y273807D01*
X489311Y249398D02*
Y273807D01*
X461835D02*
X488213D01*
X461835Y249398D02*
X488213D01*
Y273807D01*
X461835Y249398D02*
Y273807D01*
X433811D02*
X460189Y273807D01*
X433811Y249398D02*
X460189D01*
Y273807D01*
X433811Y249398D02*
Y273807D01*
M02*
