G04*
G04 #@! TF.GenerationSoftware,Altium Limited,Altium Designer,18.1.6 (161)*
G04*
G04 Layer_Physical_Order=2*
G04 Layer_Color=16711680*
%FSLAX25Y25*%
%MOIN*%
G70*
G01*
G75*
%ADD13R,0.10236X0.05315*%
%ADD24C,0.05000*%
%ADD25C,0.01600*%
%ADD26C,0.01000*%
%ADD27C,0.01200*%
%ADD28C,0.15748*%
%ADD29C,0.04724*%
%ADD30C,0.01772*%
%ADD31C,0.06000*%
G04:AMPARAMS|DCode=32|XSize=102.36mil|YSize=53.15mil|CornerRadius=0mil|HoleSize=0mil|Usage=FLASHONLY|Rotation=315.000|XOffset=0mil|YOffset=0mil|HoleType=Round|Shape=Rectangle|*
%AMROTATEDRECTD32*
4,1,4,-0.05498,0.01740,-0.01740,0.05498,0.05498,-0.01740,0.01740,-0.05498,-0.05498,0.01740,0.0*
%
%ADD32ROTATEDRECTD32*%

%ADD33R,0.03150X0.03150*%
%ADD34R,0.01968X0.01772*%
%ADD35C,0.23622*%
%ADD36R,0.01772X0.01968*%
%ADD37R,0.01968X0.01575*%
%ADD38R,0.03150X0.03150*%
%ADD39R,0.01575X0.01968*%
%ADD40R,0.02165X0.03150*%
%ADD41R,0.03150X0.02165*%
%ADD42R,0.02165X0.02953*%
G36*
X527000Y313783D02*
X528273Y313658D01*
X529497Y313286D01*
X530625Y312683D01*
X531614Y311872D01*
X531618Y311875D01*
X535497Y307997D01*
X535500Y307994D01*
X536471Y306812D01*
X537194Y305459D01*
X537639Y303991D01*
X537789Y302469D01*
X537788Y302465D01*
Y248682D01*
X537785D01*
X537651Y247323D01*
X537255Y246016D01*
X536611Y244811D01*
X535744Y243756D01*
X534689Y242889D01*
X533484Y242245D01*
X532177Y241849D01*
X530818Y241715D01*
Y241712D01*
X433500D01*
Y250514D01*
X438561D01*
Y250879D01*
X440817D01*
Y249825D01*
X444183D01*
Y254175D01*
X440817D01*
Y253121D01*
X439428D01*
X439028Y253622D01*
X439140Y254471D01*
X439584Y254538D01*
Y257187D01*
X439584Y257313D01*
Y257687D01*
X439584Y257813D01*
Y260323D01*
X439646Y260370D01*
X440317Y260648D01*
X440817Y260314D01*
Y259865D01*
X444058D01*
X444183Y259865D01*
X444558D01*
X444683Y259865D01*
X447923D01*
Y263916D01*
X448218D01*
Y267084D01*
X447952D01*
Y268849D01*
X448071Y268929D01*
X448400Y269420D01*
X448515Y270000D01*
X448400Y270580D01*
X448071Y271071D01*
X447580Y271400D01*
X447000Y271515D01*
X446420Y271400D01*
X445929Y271071D01*
X445600Y270580D01*
X445485Y270000D01*
X445600Y269420D01*
X445709Y269257D01*
Y267084D01*
X445443D01*
Y265426D01*
X445220Y264888D01*
X445132Y264214D01*
X444683D01*
X444558Y264214D01*
X444183D01*
X444058Y264214D01*
X440817D01*
Y263082D01*
X440470Y263047D01*
X439887Y262871D01*
X439486Y263168D01*
Y264131D01*
X436514D01*
Y260963D01*
X436878D01*
Y260462D01*
X436416D01*
Y257813D01*
X436416Y257687D01*
Y257313D01*
X436416Y257187D01*
Y254538D01*
X436416D01*
X436810Y254038D01*
X436714Y253556D01*
X436667Y253486D01*
X433500D01*
Y271000D01*
X431000Y273028D01*
X410812Y273028D01*
X410727Y273121D01*
X410712Y273600D01*
Y283500D01*
Y293500D01*
X410717D01*
X410842Y294773D01*
X411214Y295997D01*
X411817Y297126D01*
X412628Y298114D01*
X412625Y298118D01*
X426504Y311997D01*
X426508Y311992D01*
X427434Y312751D01*
X428490Y313316D01*
X429636Y313664D01*
X430828Y313781D01*
Y313788D01*
X445469D01*
X445594Y313288D01*
X444269Y312580D01*
X442979Y311521D01*
X441920Y310231D01*
X441325Y309117D01*
X439508Y308974D01*
X437427Y308474D01*
X435449Y307655D01*
X434409Y307018D01*
X432670Y308757D01*
X428064Y304150D01*
X431404Y300810D01*
X431426Y300756D01*
X432003Y300004D01*
X432756Y299427D01*
X432810Y299404D01*
X436150Y296064D01*
X440757Y300670D01*
X440182Y301245D01*
X440304Y301730D01*
X440397Y301758D01*
X441342Y301851D01*
X441920Y300769D01*
X442979Y299479D01*
X444269Y298420D01*
X445741Y297633D01*
X447073Y297229D01*
Y290642D01*
X447065D01*
X447205Y288853D01*
X447624Y287108D01*
X448311Y285451D01*
X448528Y285096D01*
X448248Y284596D01*
X445317D01*
Y284596D01*
X445270Y284555D01*
X444633Y284638D01*
X444584Y284986D01*
X438463D01*
Y283734D01*
X438254Y283320D01*
X437497Y282334D01*
X437021Y281185D01*
X437005Y281061D01*
X436514D01*
Y277892D01*
Y274939D01*
X439486D01*
Y275096D01*
X462412D01*
X462500Y275089D01*
Y275096D01*
X464836D01*
Y274939D01*
X467807D01*
Y275096D01*
X476478D01*
X476879Y274858D01*
Y272828D01*
X476470Y272492D01*
X474978Y271694D01*
X473359Y271203D01*
X471719Y271042D01*
X471675Y271051D01*
X468486D01*
Y271513D01*
X465514D01*
X465097Y271712D01*
X464814Y271929D01*
X464812Y271962D01*
Y271962D01*
X463633Y272866D01*
X462260Y273435D01*
X460787Y273629D01*
Y273602D01*
X452423D01*
Y274557D01*
X449057D01*
Y270404D01*
X450789D01*
X451278Y270356D01*
X451598Y269989D01*
X452394Y269019D01*
X453216Y267481D01*
X453722Y265813D01*
X453888Y264127D01*
X453878Y264078D01*
Y260500D01*
X453883Y260478D01*
X453745Y259078D01*
X453330Y257711D01*
X452657Y256451D01*
X452059Y255722D01*
X451746Y255352D01*
X451400Y255005D01*
X450569Y254175D01*
X448298D01*
Y249825D01*
X451663D01*
Y252097D01*
X452979Y253412D01*
X453349Y253748D01*
X453349Y253748D01*
X454537Y255195D01*
X455419Y256846D01*
X455963Y258637D01*
X456146Y260500D01*
X456122D01*
Y264078D01*
X456134D01*
X455997Y265820D01*
X455589Y267519D01*
X454921Y269133D01*
X454008Y270623D01*
X453767Y270905D01*
X453976Y271359D01*
X459528D01*
X459787Y270859D01*
X459600Y270580D01*
X459485Y270000D01*
X459600Y269420D01*
X459929Y268929D01*
X460420Y268600D01*
X460911Y268503D01*
X463253Y266161D01*
X463600Y265814D01*
X463920Y265447D01*
X464716Y264477D01*
X465538Y262939D01*
X466044Y261271D01*
X466065Y261057D01*
X465729Y260686D01*
X465147D01*
Y256337D01*
X469496D01*
Y257917D01*
X470127D01*
Y257356D01*
X474477D01*
Y260722D01*
X470127D01*
Y260161D01*
X469496D01*
Y260686D01*
X468365D01*
X468319Y261278D01*
X467911Y262977D01*
X467242Y264591D01*
X466329Y266081D01*
X465195Y267409D01*
X465195Y267409D01*
X464832Y267754D01*
X462708Y269878D01*
X462721Y270082D01*
X463074Y270276D01*
X463236Y270305D01*
X464290Y269495D01*
X465514Y268988D01*
Y268345D01*
X468486D01*
Y268807D01*
X471675D01*
Y268795D01*
X473376Y268929D01*
X475035Y269328D01*
X476611Y269981D01*
X477794Y270705D01*
X480244D01*
Y272576D01*
X480718Y272773D01*
X481504Y272876D01*
Y272879D01*
X487618D01*
X487894Y272415D01*
X487889Y272378D01*
X487429Y272071D01*
X487100Y271580D01*
X486985Y271000D01*
X487073Y270560D01*
Y269340D01*
X487085Y269277D01*
X486926Y267664D01*
X486437Y266052D01*
X485643Y264567D01*
X484891Y263650D01*
X484562Y263278D01*
Y263278D01*
X484215Y262931D01*
X482005Y260722D01*
X480167D01*
Y260427D01*
X479680Y260363D01*
X478961Y260065D01*
X478344Y259592D01*
X477870Y258974D01*
X477572Y258255D01*
X477475Y257513D01*
X477469Y257484D01*
Y253059D01*
X477476Y253023D01*
X477571Y252302D01*
X477863Y251596D01*
X478328Y250990D01*
X478934Y250526D01*
X479639Y250233D01*
X480167Y250164D01*
Y249876D01*
X484516D01*
Y253241D01*
X480324D01*
Y257356D01*
X484516D01*
Y259195D01*
X486227Y260906D01*
X486586Y261254D01*
X486586Y261254D01*
X487751Y262618D01*
X488689Y264148D01*
X489376Y265806D01*
X489794Y267551D01*
X489935Y269340D01*
X489927D01*
Y270560D01*
X490015Y271000D01*
X489900Y271580D01*
X489571Y272071D01*
X489086Y272395D01*
X489084Y272415D01*
X489212Y272867D01*
X490456Y272744D01*
X491832Y272327D01*
X493100Y271649D01*
X494194Y270752D01*
X494207Y270732D01*
X494836Y270103D01*
X495176Y269737D01*
X495176Y269737D01*
X496150Y268990D01*
X497283Y268520D01*
X498500Y268360D01*
Y268378D01*
X499509D01*
Y268352D01*
X500957Y268543D01*
X502306Y269102D01*
X503464Y269990D01*
X503446Y270009D01*
X504355Y270918D01*
X504356Y270919D01*
X504558Y271074D01*
X505057Y270951D01*
Y270951D01*
X508423D01*
Y273124D01*
X520230Y284931D01*
X520577Y285278D01*
X520944Y285598D01*
X521914Y286394D01*
X523452Y287216D01*
X525120Y287722D01*
X526806Y287888D01*
X526855Y287878D01*
X527258D01*
X527413Y287506D01*
X527887Y286887D01*
X528506Y286413D01*
X529227Y286114D01*
X530000Y286012D01*
X530773Y286114D01*
X531494Y286413D01*
X532113Y286887D01*
X532587Y287506D01*
X532886Y288227D01*
X532988Y289000D01*
X532886Y289773D01*
X532587Y290494D01*
X532113Y291113D01*
X531494Y291587D01*
X530773Y291886D01*
X530000Y291988D01*
X529227Y291886D01*
X528506Y291587D01*
X527887Y291113D01*
X527413Y290494D01*
X527309Y290244D01*
X526855Y290134D01*
Y290134D01*
X525113Y289997D01*
X523414Y289589D01*
X521800Y288921D01*
X520310Y288008D01*
X518982Y286873D01*
X518982Y286873D01*
X518637Y286511D01*
X507230Y275104D01*
X505057D01*
Y273892D01*
X503918Y273420D01*
X502750Y272523D01*
X502750Y272523D01*
X502416Y272151D01*
X501860Y271595D01*
X501171Y271067D01*
X500369Y270735D01*
X499509Y270622D01*
Y270621D01*
X498500D01*
X498453Y270612D01*
X497559Y270790D01*
X497160Y271057D01*
X496775Y271336D01*
X496775Y271336D01*
X495793Y272318D01*
X495811Y272336D01*
X494356Y273529D01*
X492697Y274416D01*
X492103Y274596D01*
X492177Y275096D01*
X493014D01*
Y274939D01*
X495986D01*
Y279291D01*
X496486Y279342D01*
X497201Y278470D01*
X497190Y278459D01*
X498308Y277601D01*
X499610Y277061D01*
X501008Y276877D01*
Y276902D01*
X501504D01*
X501920Y276624D01*
X502500Y276509D01*
X503080Y276624D01*
X503571Y276952D01*
X503900Y277444D01*
X504015Y278024D01*
X503900Y278603D01*
X503571Y279095D01*
X503080Y279423D01*
X502500Y279538D01*
X501920Y279423D01*
X501504Y279145D01*
X501008D01*
Y279147D01*
X500197Y279254D01*
X499442Y279566D01*
X498794Y280064D01*
X498497Y280440D01*
X498166Y280872D01*
X497774Y281818D01*
X497732Y282138D01*
X498061Y282514D01*
X501061D01*
X501317Y282120D01*
Y280991D01*
X504683D01*
Y285143D01*
X501317D01*
X501061Y285486D01*
Y285486D01*
X494939D01*
Y284267D01*
X494754Y283844D01*
X493997Y282857D01*
X493521Y281709D01*
X493436Y281061D01*
X493014D01*
Y277951D01*
X479818D01*
X479674Y278323D01*
X479648Y278451D01*
X479961Y278920D01*
X480077Y279500D01*
X479961Y280080D01*
X479633Y280571D01*
X479142Y280900D01*
X478562Y281015D01*
X477982Y280900D01*
X477718Y280724D01*
X476996D01*
X476504Y280745D01*
Y284897D01*
X473542D01*
X472906Y284981D01*
Y285287D01*
X466785D01*
Y284053D01*
X466488Y283676D01*
X466488Y283676D01*
X465724Y282680D01*
X465244Y281521D01*
X465184Y281061D01*
X464836D01*
Y277951D01*
X462323D01*
X460880Y278093D01*
X459322Y278566D01*
X457887Y279333D01*
X457007Y280055D01*
X456641Y280378D01*
X456641Y280378D01*
X452438Y284580D01*
X452385Y284616D01*
X451357Y285869D01*
X450563Y287354D01*
X450074Y288966D01*
X449915Y290579D01*
X449927Y290642D01*
Y292564D01*
X450396Y292737D01*
X450914Y292131D01*
X450914D01*
X450916Y292130D01*
Y291187D01*
X452299D01*
X452500Y291147D01*
X454825D01*
Y290778D01*
X459175D01*
Y295128D01*
X454825D01*
Y294002D01*
X453091D01*
X452938Y294155D01*
X452885Y294191D01*
X451857Y295444D01*
X451146Y296773D01*
X451291Y297340D01*
X452259Y297633D01*
X453731Y298420D01*
X455021Y299479D01*
X456080Y300769D01*
X456867Y302241D01*
X457351Y303839D01*
X457515Y305500D01*
X457351Y307161D01*
X456867Y308759D01*
X456080Y310231D01*
X455021Y311521D01*
X453731Y312580D01*
X452406Y313288D01*
X452531Y313788D01*
X527000D01*
Y313783D01*
D02*
G37*
%LPC*%
G36*
X486718Y299435D02*
X475282D01*
Y292920D01*
X474929Y292571D01*
X474600Y292080D01*
X474485Y291500D01*
X474600Y290920D01*
X474929Y290429D01*
X475420Y290100D01*
X476000Y289985D01*
X476580Y290100D01*
X477071Y290429D01*
X477199Y290620D01*
X477801D01*
X477929Y290429D01*
X478420Y290100D01*
X479000Y289985D01*
X479580Y290100D01*
X480071Y290429D01*
X480199Y290620D01*
X480801D01*
X480929Y290429D01*
X481420Y290100D01*
X482000Y289985D01*
X482580Y290100D01*
X483071Y290429D01*
X483199Y290620D01*
X483801D01*
X483929Y290429D01*
X484420Y290100D01*
X485000Y289985D01*
X485580Y290100D01*
X486071Y290429D01*
X486400Y290920D01*
X486515Y291500D01*
X486400Y292080D01*
X486172Y292420D01*
X486371Y292895D01*
X486394Y292920D01*
X486718D01*
Y299435D01*
D02*
G37*
G36*
X474218D02*
X462782D01*
Y292920D01*
X463106D01*
X463129Y292895D01*
X463328Y292420D01*
X463100Y292080D01*
X462985Y291500D01*
X463100Y290920D01*
X463429Y290429D01*
X463920Y290100D01*
X464500Y289985D01*
X465080Y290100D01*
X465571Y290429D01*
X465699Y290620D01*
X466301D01*
X466429Y290429D01*
X466920Y290100D01*
X467500Y289985D01*
X468080Y290100D01*
X468571Y290429D01*
X468699Y290620D01*
X469301D01*
X469429Y290429D01*
X469920Y290100D01*
X470500Y289985D01*
X471080Y290100D01*
X471571Y290429D01*
X471900Y290920D01*
X472015Y291500D01*
X471900Y292080D01*
X471672Y292420D01*
X471871Y292895D01*
X471894Y292920D01*
X474218D01*
Y299435D01*
D02*
G37*
G36*
X532218Y270935D02*
X520782D01*
Y264420D01*
X523373D01*
Y263513D01*
X522241Y263170D01*
X520769Y262383D01*
X519479Y261324D01*
X518420Y260034D01*
X517633Y258562D01*
X517592Y258426D01*
X515718D01*
Y258556D01*
X504282D01*
Y258426D01*
X502218D01*
Y258556D01*
X490782D01*
Y252041D01*
X502218D01*
Y252172D01*
X504282D01*
Y252041D01*
X515718D01*
Y252172D01*
X517594D01*
X517633Y252045D01*
X518420Y250572D01*
X518569Y250391D01*
X518194Y250016D01*
X518178Y249992D01*
X518116Y249945D01*
X517741Y249675D01*
Y249675D01*
X517741Y249675D01*
X513391D01*
Y245325D01*
X517741D01*
Y246465D01*
X518083Y246569D01*
X519219Y247177D01*
X520216Y247994D01*
X520213Y247997D01*
X520588Y248372D01*
X520769Y248223D01*
X522241Y247436D01*
X523839Y246952D01*
X525500Y246788D01*
X527161Y246952D01*
X528759Y247436D01*
X530231Y248223D01*
X531521Y249282D01*
X532580Y250572D01*
X533367Y252045D01*
X533851Y253642D01*
X534015Y255303D01*
X533851Y256964D01*
X533367Y258562D01*
X532580Y260034D01*
X531521Y261324D01*
X530231Y262383D01*
X529627Y262706D01*
Y264420D01*
X532218D01*
Y270935D01*
D02*
G37*
G36*
X474477Y253241D02*
X470127D01*
Y249876D01*
X474477D01*
Y253241D01*
D02*
G37*
G36*
X511835Y249675D02*
X507485D01*
Y248986D01*
X505052D01*
Y246014D01*
X507485D01*
Y245325D01*
X511835D01*
Y249675D01*
D02*
G37*
%LPD*%
G36*
X486069Y293440D02*
X486058Y293430D01*
X485935Y293379D01*
X485930Y293367D01*
X485917Y293361D01*
X485894Y293336D01*
X485854Y293227D01*
X485771Y293145D01*
X485573Y292670D01*
X485573Y292602D01*
X485535Y292546D01*
X485572Y292361D01*
X485572Y292173D01*
X485619Y292125D01*
X485633Y292059D01*
X485788Y291826D01*
X485853Y291500D01*
X485788Y291174D01*
X485603Y290897D01*
X485326Y290712D01*
X485000Y290647D01*
X484674Y290712D01*
X484397Y290897D01*
X484341Y290981D01*
X484285Y291018D01*
X484260Y291080D01*
X484085Y291152D01*
X483927Y291258D01*
X483862Y291245D01*
X483801Y291270D01*
X483199D01*
X483138Y291245D01*
X483073Y291258D01*
X482915Y291152D01*
X482740Y291080D01*
X482715Y291018D01*
X482659Y290981D01*
X482603Y290897D01*
X482326Y290712D01*
X482000Y290647D01*
X481674Y290712D01*
X481397Y290897D01*
X481341Y290981D01*
X481285Y291018D01*
X481260Y291080D01*
X481085Y291152D01*
X480927Y291258D01*
X480862Y291245D01*
X480801Y291270D01*
X480199D01*
X480138Y291245D01*
X480073Y291258D01*
X479915Y291152D01*
X479740Y291080D01*
X479715Y291018D01*
X479659Y290981D01*
X479603Y290897D01*
X479326Y290712D01*
X479000Y290647D01*
X478674Y290712D01*
X478397Y290897D01*
X478341Y290981D01*
X478285Y291018D01*
X478260Y291080D01*
X478085Y291152D01*
X477927Y291258D01*
X477862Y291245D01*
X477801Y291270D01*
X477199D01*
X477138Y291245D01*
X477073Y291258D01*
X476915Y291152D01*
X476740Y291080D01*
X476715Y291018D01*
X476659Y290981D01*
X476603Y290897D01*
X476326Y290712D01*
X476000Y290647D01*
X475674Y290712D01*
X475397Y290897D01*
X475212Y291174D01*
X475147Y291500D01*
X475212Y291826D01*
X475432Y292155D01*
X475738Y292457D01*
X475739Y292460D01*
X475741Y292460D01*
X475836Y292688D01*
X475931Y292915D01*
X475930Y292917D01*
X475931Y292920D01*
Y297838D01*
X486069D01*
Y293440D01*
D02*
G37*
G36*
X473569Y293569D02*
X471894D01*
X471882Y293564D01*
X471869Y293569D01*
X471709Y293495D01*
X471624Y293495D01*
X471558Y293430D01*
X471435Y293379D01*
X471430Y293367D01*
X471417Y293361D01*
X471394Y293336D01*
X471354Y293227D01*
X471271Y293145D01*
X471073Y292670D01*
X471073Y292602D01*
X471035Y292546D01*
X471072Y292361D01*
X471072Y292173D01*
X471119Y292125D01*
X471133Y292059D01*
X471288Y291826D01*
X471353Y291500D01*
X471288Y291174D01*
X471103Y290897D01*
X470826Y290712D01*
X470500Y290647D01*
X470174Y290712D01*
X469897Y290897D01*
X469841Y290981D01*
X469785Y291018D01*
X469760Y291080D01*
X469585Y291152D01*
X469427Y291258D01*
X469362Y291245D01*
X469301Y291270D01*
X468699D01*
X468638Y291245D01*
X468573Y291258D01*
X468415Y291152D01*
X468240Y291080D01*
X468215Y291018D01*
X468159Y290981D01*
X468103Y290897D01*
X467826Y290712D01*
X467500Y290647D01*
X467174Y290712D01*
X466897Y290897D01*
X466841Y290981D01*
X466785Y291018D01*
X466760Y291080D01*
X466585Y291152D01*
X466427Y291258D01*
X466362Y291245D01*
X466301Y291270D01*
X465699D01*
X465638Y291245D01*
X465573Y291258D01*
X465415Y291152D01*
X465240Y291080D01*
X465215Y291018D01*
X465159Y290981D01*
X465103Y290897D01*
X464826Y290712D01*
X464500Y290647D01*
X464174Y290712D01*
X463897Y290897D01*
X463712Y291174D01*
X463647Y291500D01*
X463712Y291826D01*
X463868Y292059D01*
X463881Y292125D01*
X463928Y292173D01*
X463928Y292361D01*
X463965Y292546D01*
X463927Y292602D01*
X463927Y292670D01*
X463729Y293145D01*
X463646Y293227D01*
X463606Y293336D01*
X463583Y293361D01*
X463570Y293367D01*
X463565Y293379D01*
X463442Y293430D01*
X463431Y293440D01*
Y297529D01*
X463684Y297697D01*
X464024Y297838D01*
X473569D01*
Y293569D01*
D02*
G37*
G54D13*
X468500Y296177D02*
D03*
Y305823D02*
D03*
X526500Y267677D02*
D03*
Y277323D02*
D03*
X481000Y296177D02*
D03*
Y305823D02*
D03*
X496500Y255299D02*
D03*
Y264945D02*
D03*
X510000Y255299D02*
D03*
Y264945D02*
D03*
G54D24*
X525500Y255303D02*
X526043Y256010D01*
X526384Y256834D01*
X526500Y257717D01*
Y267677D01*
X510000Y255299D02*
X525496D01*
X496500D02*
X510000D01*
G54D25*
X449000Y304500D02*
X448500Y303293D01*
X515566Y247500D02*
X516570Y247599D01*
X517535Y247892D01*
X518424Y248367D01*
X519204Y249007D01*
X480452Y259039D02*
X479352Y258584D01*
X478897Y257484D01*
X485571Y262269D02*
X486230Y262996D01*
X486815Y263784D01*
X487319Y264626D01*
X487739Y265513D01*
X488069Y266437D01*
X488308Y267389D01*
X488452Y268360D01*
X488500Y269340D01*
X478897Y253059D02*
X479336Y251998D01*
X480397Y251559D01*
X455631Y279369D02*
X456338Y278729D01*
X457103Y278161D01*
X457921Y277671D01*
X458783Y277263D01*
X459680Y276942D01*
X460605Y276710D01*
X461548Y276570D01*
X462500Y276524D01*
X449000Y300217D02*
X449048Y299237D01*
X449192Y298266D01*
X449431Y297314D01*
X449761Y296390D01*
X450181Y295503D01*
X450685Y294661D01*
X451270Y293873D01*
X451929Y293146D01*
X448500Y290642D02*
X448548Y289662D01*
X448692Y288691D01*
X448931Y287739D01*
X449261Y286815D01*
X449681Y285928D01*
X450185Y285086D01*
X450770Y284298D01*
X451429Y283571D01*
X456087Y292575D02*
X457000Y292953D01*
X448500Y290642D02*
Y303293D01*
X449000Y300217D02*
Y304500D01*
X519204Y249007D02*
X525496Y255299D01*
X506636Y247500D02*
X509660D01*
X480452Y259039D02*
X482341D01*
X485571Y262269D01*
X488500Y269340D02*
Y271000D01*
X438000Y276524D02*
X462500D01*
X466322D01*
X451429Y283571D02*
X455631Y279369D01*
X452500Y292575D02*
X456087D01*
X451929Y293146D02*
X452500Y292575D01*
X466322Y276524D02*
X494500D01*
X478897Y253059D02*
Y257484D01*
X480397Y251559D02*
X482341D01*
G54D26*
X506740Y273028D02*
X505863Y272941D01*
X505020Y272686D01*
X504243Y272270D01*
X503562Y271711D01*
X526855Y289000D02*
X525875Y288952D01*
X524904Y288808D01*
X523952Y288569D01*
X523028Y288239D01*
X522141Y287819D01*
X521299Y287315D01*
X520511Y286730D01*
X519784Y286071D01*
X495982Y270543D02*
X496720Y269977D01*
X497578Y269621D01*
X498500Y269500D01*
X499509D02*
X500660Y269652D01*
X501732Y270096D01*
X502653Y270802D01*
X495000Y271525D02*
X494293Y272157D01*
X493521Y272705D01*
X492691Y273163D01*
X491816Y273526D01*
X490905Y273788D01*
X489971Y273947D01*
X489025Y274000D01*
X464000Y271149D02*
X463311Y271714D01*
X462526Y272134D01*
X461673Y272393D01*
X460787Y272480D01*
X464000Y271149D02*
X464863Y270487D01*
X465868Y270071D01*
X466947Y269929D01*
X455000Y264078D02*
X454952Y265058D01*
X454808Y266029D01*
X454569Y266981D01*
X454239Y267905D01*
X453819Y268792D01*
X453315Y269634D01*
X452730Y270422D01*
X452071Y271149D01*
X468595Y259039D02*
X467322Y258511D01*
Y259536D02*
X467274Y260516D01*
X467130Y261487D01*
X466891Y262439D01*
X466561Y263363D01*
X466141Y264250D01*
X465636Y265092D01*
X465052Y265880D01*
X464393Y266607D01*
X447000Y270000D02*
X446831Y269591D01*
Y265500D02*
X446394Y264846D01*
X446240Y264074D01*
X481504Y274000D02*
X480427Y273858D01*
X479423Y273443D01*
X478562Y272781D01*
X478557Y272777D02*
X478562Y272781D01*
X471675Y269929D02*
X472629Y269976D01*
X473574Y270116D01*
X474500Y270348D01*
X475399Y270669D01*
X476263Y271077D01*
X477082Y271568D01*
X477849Y272136D01*
X478557Y272777D01*
X452539Y254559D02*
X453167Y255261D01*
X453712Y256030D01*
X454168Y256854D01*
X454529Y257725D01*
X454789Y258630D01*
X454947Y259559D01*
X455000Y260500D01*
X498000Y279269D02*
X498881Y278593D01*
X499907Y278169D01*
X501008Y278024D01*
X495561Y283037D02*
X494985Y282287D01*
X494623Y281414D01*
X494500Y280476D01*
X496524Y282834D02*
X496621Y281850D01*
X496907Y280905D01*
X497373Y280033D01*
X498000Y279269D01*
X439061Y282513D02*
X438485Y281763D01*
X438123Y280890D01*
X438000Y279953D01*
X442006Y279931D02*
X443095Y279438D01*
X444278Y279269D01*
X440047Y283500D02*
X440180Y282449D01*
X440569Y281464D01*
X441191Y280607D01*
X442006Y279931D01*
X503000Y283067D02*
X502340Y283573D01*
X501572Y283891D01*
X500747Y284000D01*
X447000Y282520D02*
X446307Y283052D01*
X445500Y283386D01*
X444633Y283500D01*
X441716Y262039D02*
X440691Y261938D01*
X439705Y261639D01*
X438796Y261154D01*
X438000Y260500D01*
X436976Y252000D02*
X437532Y252724D01*
X437881Y253567D01*
X438000Y254471D01*
X415000Y255000D02*
X415147Y254073D01*
X415573Y253237D01*
X416237Y252573D01*
X417073Y252147D01*
X418000Y252000D01*
X506740Y273028D02*
X519784Y286071D01*
X526855Y289000D02*
X530000D01*
X502653Y270802D02*
X503562Y271711D01*
X498500Y269500D02*
X499509D01*
X481504Y274000D02*
X489025D01*
X495000Y271525D02*
X495982Y270543D01*
X467000Y269929D02*
X471675D01*
X466947D02*
X467000D01*
X450740Y272480D02*
X452071Y271149D01*
X450740Y272480D02*
X460787D01*
X468595Y259039D02*
X472302D01*
X467322Y258511D02*
Y259536D01*
X461000Y270000D02*
X464393Y266607D01*
X446831Y265500D02*
Y269591D01*
X449980Y252000D02*
X452539Y254559D01*
X455000Y260500D02*
Y264078D01*
X501008Y278024D02*
X502500D01*
X495561Y283037D02*
X496524Y284000D01*
Y282834D02*
Y284000D01*
X444278Y279269D02*
X449980D01*
X439061Y282513D02*
X440047Y283500D01*
X499476Y284000D02*
X500747D01*
X443000Y283500D02*
X444633D01*
X446240Y262039D02*
Y264074D01*
X438000Y260500D02*
Y262547D01*
Y259075D02*
Y260500D01*
X441716Y262039D02*
X442500D01*
X436976Y252000D02*
X442500D01*
X438000Y254471D02*
Y255925D01*
X418000Y252000D02*
X434024D01*
G54D27*
X468369Y283801D02*
X468588Y282698D01*
X469213Y281763D01*
X470500Y280476D02*
X471190Y279947D01*
X471994Y279614D01*
X472857Y279500D01*
X467366Y282798D02*
X466799Y282060D01*
X466443Y281200D01*
X466322Y280278D01*
X474822Y282821D02*
X474128Y283353D01*
X473321Y283687D01*
X472455Y283801D01*
X472857Y279500D02*
X478562D01*
X467366Y282798D02*
X468369Y283801D01*
X469213Y281763D02*
X470500Y280476D01*
X471322Y283801D02*
X472455D01*
G54D28*
X420000Y284500D02*
D03*
X449000Y305500D02*
D03*
X526000D02*
D03*
X525500Y255303D02*
D03*
G54D29*
X530000Y289000D02*
D03*
G54D30*
X485000Y291500D02*
D03*
X482000D02*
D03*
X479000D02*
D03*
X476000D02*
D03*
X470500D02*
D03*
X467500D02*
D03*
X464500D02*
D03*
X437500Y271149D02*
D03*
X461000Y270000D02*
D03*
X447000D02*
D03*
X474822Y273500D02*
D03*
X488500Y271000D02*
D03*
X502500Y278024D02*
D03*
X478562Y279500D02*
D03*
X449980Y279269D02*
D03*
G54D31*
X441642Y305500D02*
X440662Y305452D01*
X439691Y305308D01*
X438739Y305069D01*
X437815Y304739D01*
X436928Y304319D01*
X436086Y303815D01*
X435298Y303230D01*
X434571Y302571D01*
X441642Y305500D02*
X449000D01*
G54D32*
X434410Y302410D02*
D03*
X427590Y295590D02*
D03*
G54D33*
X515566Y247500D02*
D03*
X509660D02*
D03*
G54D34*
X506636D02*
D03*
X503684D02*
D03*
X434024Y252000D02*
D03*
X436976D02*
D03*
X499476Y284000D02*
D03*
X496524D02*
D03*
X443000Y283500D02*
D03*
X440047D02*
D03*
X471322Y283801D02*
D03*
X468369D02*
D03*
G54D35*
X412000Y255000D02*
D03*
G54D36*
X467000Y269929D02*
D03*
Y272882D02*
D03*
X438000Y265500D02*
D03*
Y262547D02*
D03*
X466322Y279476D02*
D03*
Y276524D02*
D03*
X438000Y279476D02*
D03*
Y276524D02*
D03*
X494500Y279476D02*
D03*
Y276524D02*
D03*
G54D37*
X438000Y255925D02*
D03*
Y259075D02*
D03*
X452500Y289425D02*
D03*
Y292575D02*
D03*
G54D38*
X457000Y292953D02*
D03*
Y287047D02*
D03*
X467322Y252606D02*
D03*
Y258511D02*
D03*
G54D39*
X446831Y265500D02*
D03*
X449980D02*
D03*
G54D40*
Y252000D02*
D03*
X446240D02*
D03*
X442500D02*
D03*
Y262039D02*
D03*
X446240D02*
D03*
X449980D02*
D03*
G54D41*
X472302Y259039D02*
D03*
Y251559D02*
D03*
X482341D02*
D03*
Y255299D02*
D03*
Y259039D02*
D03*
G54D42*
X447000Y282520D02*
D03*
X443260Y272480D02*
D03*
X450740D02*
D03*
X503000Y283067D02*
D03*
X499260Y273028D02*
D03*
X506740D02*
D03*
X474822Y282821D02*
D03*
X471081Y272781D02*
D03*
X478562D02*
D03*
M02*
